HIERARCHY
ROOT Hips
{
	OFFSET	0	0	0
	CHANNELS 6  Xposition Yposition Zposition Xrotation Yrotation Zrotation
	JOINT Spine
	{
		OFFSET	0	0.0328084	0
		CHANNELS 6  Xrotation Yrotation Zrotation Xposition Yposition Zposition
		JOINT Spine1
		{
			OFFSET	0	0.334509	-0.0597337
			CHANNELS 6  Xrotation Yrotation Zrotation Xposition Yposition Zposition
			JOINT Spine2
			{
				OFFSET	0	0.25357	0.0271788
				CHANNELS 6  Xrotation Yrotation Zrotation Xposition Yposition Zposition
				JOINT Spine3
				{
					OFFSET	0	0.303447	0.0901979
					CHANNELS 6  Xrotation Yrotation Zrotation Xposition Yposition Zposition
					JOINT Spine4
					{
						OFFSET	0	0.449197	-0.0459949
						CHANNELS 3  Xrotation Yrotation Zrotation
						JOINT Neck
						{
							OFFSET	0	0.214444	-0.15023
							CHANNELS 3  Xrotation Yrotation Zrotation
							JOINT Head
							{
								OFFSET	0	0.257452	-0.0770565
								CHANNELS 3  Xrotation Yrotation Zrotation
								End Site
								{
									OFFSET	0	0.537006	-0.0259842
								}
							}
						}
					}
					JOINT LeftShoulder
					{
						OFFSET	-0.129025	0.545966	-0.257452
						CHANNELS 3  Xrotation Yrotation Zrotation
						JOINT LeftArm
						{
							OFFSET	-0.3343	-0.0770565	0.0988599
							CHANNELS 3  Xrotation Yrotation Zrotation
							JOINT LeftForeArm
							{
								OFFSET	-0.912438	-0.0416452	0.0651288
								CHANNELS 3  Xrotation Yrotation Zrotation
								JOINT LeftHand
								{
									OFFSET	-0.767321	-0.0530262	0.0547706
									CHANNELS 3  Xrotation Yrotation Zrotation
									End Site
									{
										OFFSET	-0.280034	-0.0193519	0.0199872
									}
								}
							}
						}
					}
					JOINT RightShoulder
					{
						OFFSET	0.129025	0.545966	-0.257452
						CHANNELS 3  Xrotation Yrotation Zrotation
						JOINT RightArm
						{
							OFFSET	0.3343	-0.0770565	0.0988599
							CHANNELS 3  Xrotation Yrotation Zrotation
							JOINT RightForeArm
							{
								OFFSET	0.912438	-0.0416452	0.0651288
								CHANNELS 3  Xrotation Yrotation Zrotation
								JOINT RightHand
								{
									OFFSET	0.767321	-0.0530262	0.0547706
									CHANNELS 3  Xrotation Yrotation Zrotation
									End Site
									{
										OFFSET	0.280034	-0.0193519	0.0199872
									}
								}
							}
						}
					}
				}
			}
		}
	}
	JOINT LeftUpLeg
	{
		OFFSET	-0.320471	-0.263949	-0.0588377
		CHANNELS 3  Xrotation Yrotation Zrotation
		JOINT LeftLeg
		{
			OFFSET	0.00548563	-1.32569	-0.0207234
			CHANNELS 3  Xrotation Yrotation Zrotation
			JOINT LeftFoot
			{
				OFFSET	-0.071207	-1.31257	0.112881
				CHANNELS 3  Xrotation Yrotation Zrotation
				JOINT LeftToeBase
				{
					OFFSET	0	-0.111971	-0.297395
					CHANNELS 3  Xrotation Yrotation Zrotation
					End Site
					{
						OFFSET	0	-0.0447883	-0.179154
					}
				}
			}
		}
	}
	JOINT RightUpLeg
	{
		OFFSET	0.320471	-0.263949	-0.0588377
		CHANNELS 3  Xrotation Yrotation Zrotation
		JOINT RightLeg
		{
			OFFSET	-0.00548563	-1.32569	-0.0207234
			CHANNELS 3  Xrotation Yrotation Zrotation
			JOINT RightFoot
			{
				OFFSET	0.071207	-1.31257	0.112881
				CHANNELS 3  Xrotation Yrotation Zrotation
				JOINT RightToeBase
				{
					OFFSET	0	-0.111971	-0.297395
					CHANNELS 3  Xrotation Yrotation Zrotation
					End Site
					{
						OFFSET	0	-0.0447883	-0.179154
					}
				}
			}
		}
	}
}
MOTION
Frames: 13
Frame Time: 0.02
-0.07104993 2.55525 -3.2308502 67.0925 143.14 -61.3105 83.276 90.01567 -85.39785 0.0 -0.0014229994 0.0 85.9658 90.03098 -82.329994 0.0 -0.0014229994 0.0 86.654755 90.08795 -82.329994 0.0 -0.0014229994 0.0 90.5615 89.98006 -85.3967 0.0 -0.0014229994 0.0 173.77 179.81 178.475 172.205 -2.7050018 166.205 87.793526 90.0 -92.21195 92.95595 -90.2855 96.494995 48.5704 -74.4425 91.7275 157.785 -153.36499 169.995 0.0 -7.55725 -0.67139983 89.9861 80.13765 -89.707 99.354996 -80.217995 9.514999 156.61 116.2175 -169.185 0.0 11.1658 -3.1754 43.320503 22.762001 15.137999 122.3585 -173.55 -18.0 20.8 0.025705498 5.59025 73.962204 90.0 -9.0 80.970505 7.2199993 19.765999 131.905 -14.059998 -18.0 171.735 179.96 170.68 152.74 180.0 -180.0
-0.069049954 2.5436502 -3.2451499 67.5435 143.3 -60.0605 83.3965 90.008385 -85.50755 0.0 -0.0024345014 0.0 86.03215 90.01647 -82.514496 0.0 -0.0024345014 0.0 86.6717 90.05944 -82.514496 0.0 -0.0024345014 0.0 90.69 89.98806 -85.5068 0.0 -0.0024345014 0.0 174.14499 179.825 178.48999 82.66683 86.4111 75.340996 87.96815 90.741 87.447 93.08379 -90.665 96.765495 48.7156 -72.929504 90.3535 157.475 -151.905 169.36 0.0 -7.5635004 -1.1180999 90.20265 79.8885 -90.1485 99.695 -79.945 10.257999 156.695 116.206 -169.09 0.0 11.4488 -2.700825 44.496998 22.466 14.273499 121.6785 -172.56 -18.0 22.087 0.049457 6.2256 73.823746 90.0 -9.0 81.651505 8.782 19.809 130.41501 -13.084999 81.0 171.675 179.955 171.035 152.85501 180.0 -180.0
-0.069900036 2.5394 -3.2542 68.361 143.355 -59.378498 83.429504 90.00722 -85.60574 0.0 -0.0035935007 0.0 86.05165 90.0093 -82.674995 0.0 -0.0035935007 0.0 86.6845 90.037895 -82.674995 0.0 -0.0035935007 0.0 90.708 89.99013 -85.60605 0.0 -0.0035935007 0.0 174.215 179.83499 98.0 82.6997 87.1224 74.5715 88.01761 91.628006 87.154854 93.003845 -91.185005 96.582 48.75505 -70.227 89.079 157.27 -151.23 169.07 0.0 -7.6772003 -1.2469997 90.5304 79.9012 -90.837 100.812996 -79.505 11.446499 156.745 116.375 -169.005 0.0 11.675 -2.2138898 45.83755 21.7725 13.241001 121.132 -171.405 -18.0 23.074501 0.032555502 6.84215 73.71045 90.0 -9.0 82.0645 9.863501 19.854 128.09 -11.910004 81.0 171.63501 -0.0450058 171.425 152.975 180.0 -180.0
-0.06919992 2.5389 -3.2663999 68.546 143.48999 -58.643997 83.191 -89.99851 -85.6966 0.0 -0.0048274994 0.0 85.9145 -90.00196 -82.8193 0.0 -0.0048274994 0.0 86.562 -90.01588 -82.8193 0.0 -0.0048274994 0.0 90.781494 -89.99571 -85.6961 0.0 -0.0048274994 0.0 174.11499 179.83499 178.57 82.56096 87.6381 73.8815 88.00717 92.426 86.893654 92.56445 -91.4895 95.604004 49.00995 -66.5595 88.160995 157.13501 -150.345 168.755 0.0 -7.6778502 -1.1362 90.8599 80.33095 -91.5645 101.848495 -79.20351 12.9489975 156.755 116.5135 -168.86499 0.0 11.96455 -1.789815 47.0535 20.384998 11.984501 120.45999 -170.345 -18.0 23.296001 0.046305 7.3789997 73.202 90.0 -9.0 81.520996 10.871 20.3975 125.509995 -10.495003 81.0 171.57 0.01499939 171.87 153.08 180.0 -180.0
-0.06774998 2.5444498 -3.2865 68.249 143.35501 -57.789 82.859505 -89.99788 -85.778244 0.0 -0.0061085 0.0 85.70365 -89.995705 -82.955505 0.0 -0.0061085 0.0 86.362 -89.987114 -82.955505 0.0 -0.0061085 0.0 90.9295 -89.999664 -85.779045 0.0 -0.0061085 0.0 174.085 179.815 178.6 82.52378 88.005455 73.0365 88.04347 93.0465 86.57875 1.9902575 -25.661 4.3345847 49.26595 -62.5495 87.125 157.06 -149.555 167.94 0.0 -7.6755 -0.9425001 91.32105 80.877 -92.579994 102.5015 -79.192 14.066502 156.75 116.7705 -168.61499 0.0 12.2102995 -1.48459 47.9415 18.76 10.752501 119.9225 -169.625 -18.0 22.9965 0.096204 7.84175 73.4995 90.0 -9.0 80.8935 11.5465 20.8525 123.095 -9.020004 81.0 171.42 0.01499939 172.32 153.17 180.0 -180.0
-0.07309997 2.5516 -3.3126502 66.66 143.62 -55.240498 82.581 -89.99972 -85.8528 0.0 -0.0073035005 0.0 85.5509 -90.00435 -83.0913 0.0 -0.0073035005 0.0 86.181 -90.01304 -83.0913 0.0 -0.0073035005 0.0 91.086 -89.997086 -85.85235 0.0 -0.0073035005 0.0 174.135 179.83499 178.60501 82.58765 88.30815 72.2515 88.0991 93.458496 86.288506 1.2172 -25.109 2.643965 49.2645 -58.458 85.8375 156.85501 -148.275 167.605 0.0 -7.81555 -0.64004993 91.774895 81.46001 -93.604996 102.973 -79.312004 15.014999 156.825 116.925 -168.405 0.0 12.551001 -1.23765 48.666 17.009 9.9545 119.80701 -168.95999 -18.0 22.530499 0.091655 8.2445 73.4199 90.0 -9.0 79.7455 11.6525 21.491001 121.15 -7.5399933 81.0 171.32 0.04499817 172.745 153.265 180.0 -180.0
-0.0776 2.5549998 -3.3198502 66.209 143.95 -54.4215 82.3975 -89.99356 -85.82515 0.0 -0.008379499 0.0 85.4415 -89.992065 -83.0419 0.0 -0.008379499 0.0 86.021996 -89.976204 -83.0419 0.0 -0.008379499 0.0 91.3015 -90.00229 -85.7875 0.0 -0.008379499 0.0 174.4 179.825 178.61499 82.96415 88.41075 71.507 88.253395 93.6485 85.99295 0.3026425 -24.737999 0.653542 48.3545 -54.233498 83.645004 156.54001 -146.565 166.78 0.0 -8.0442 -0.30100012 92.006996 82.031 -94.139 103.2825 -79.3325 15.911999 156.88501 117.102 -168.295 0.0 12.864 -0.9993 49.287003 15.0195 8.809499 120.1485 -168.305 -18.0 21.91 0.07205 8.5654 73.3248 90.0 -9.0 78.4955 11.261499 22.1805 120.17 -6.125 81.0 171.13 -179.93 173.11499 153.34 180.0 -180.0
-0.08375001 2.56935 -3.3301 64.9765 144.315 -52.8615 82.2625 -90.0078 -85.8371 0.0 -0.009388 0.0 85.359955 -90.01538 -83.0618 0.0 -0.009388 0.0 85.9645 -90.05114 -83.0618 0.0 -0.009388 0.0 91.31 -89.98892 -85.837456 0.0 -0.009388 0.0 174.275 179.83 178.62 82.76415 88.0813 71.302505 88.21146 93.693 85.852005 89.26119 -86.318 88.39055 68.229 -51.292503 101.828995 156.11499 -144.555 165.65 0.0 -8.333151 0.006500244 92.17955 82.7635 -94.604 103.2645 -79.4635 16.626 156.95999 117.473 -168.31 0.0 13.18115 -0.84675 49.477997 13.206999 7.785 120.889496 -167.59 -18.0 21.053 0.13909225 8.8639 73.14 90.0 -9.0 76.7985 10.4865 22.858002 119.305 -4.6200027 81.0 171.465 0.069999695 173.45499 153.42 180.0 -180.0
-0.094249964 2.5771 -3.3417997 63.4435 144.33499 -51.2415 82.2015 -90.00935 -85.85375 0.0 -0.010336501 0.0 85.32365 -90.02345 -83.0912 0.0 -0.010336501 0.0 85.93 -90.0754 -83.0912 0.0 -0.010336501 0.0 91.239 -89.9864 -85.852554 0.0 -0.010336501 0.0 174.055 179.82 178.61499 82.467255 87.89615 71.2605 88.123695 93.791 85.862 88.377 -85.6925 86.4445 67.0075 -50.1295 99.3085 155.26999 -141.51001 163.78 0.0 -8.8659 -0.01999998 92.32005 83.670006 -94.997 103.479996 -79.631996 17.335003 156.905 117.973495 -168.11499 0.0 13.41825 -0.64475 49.658 10.980499 6.1379995 121.7115 -166.575 -18.0 20.2 0.021233499 9.205851 73.0597 90.0 -9.0 75.149 9.1945 23.480999 119.17 -3.8850021 81.0 172.035 -179.95 173.66501 153.48 180.0 -180.0
-0.10500002 2.5929 -3.34585 62.3605 144.66 -50.0235 82.084 -90.0172 -85.8842 0.0 -0.011184 0.0 85.253204 -90.03906 -83.1436 0.0 -0.011184 0.0 85.894005 -90.12216 -83.14355 0.0 -0.011184 0.0 91.159996 -89.976204 -85.882454 0.0 -0.011184 0.0 173.735 179.815 178.64 82.072 87.7775 71.369995 88.0 94.037 85.8692 87.56765 -85.33099 84.650345 69.427 -49.9305 99.996994 154.11499 -138.64 161.64 0.0 -9.1979 -0.18200016 92.4411 84.7755 -95.3565 103.8985 -79.964 18.207 157.10501 118.328 -168.315 0.0 13.71215 -0.5795001 49.635002 9.232 4.6504993 122.708496 -165.875 81.0 19.369 0.047909003 9.49915 73.0209 90.0 -9.0 73.39 7.932 23.8295 119.455 -3.3050003 81.0 82.59615 89.9572 83.7842 153.53 180.0 -180.0
-0.11245 2.60775 -3.34965 61.751 145.25 -49.2885 81.973495 89.98158 -85.907745 0.0 -0.011853999 0.0 85.18355 89.96835 -83.182846 0.0 -0.011853999 0.0 85.864 89.91005 -83.182846 0.0 -0.011853999 0.0 91.198 -89.98378 -85.9074 0.0 -0.011853999 0.0 173.695 179.815 178.63501 82.0578 87.698654 71.4815 88.00345 94.3215 85.83 86.645004 -85.6575 82.587746 74.4555 -49.784 103.224495 152.2 -135.71 159.10501 0.0 -9.625999 -0.30299997 92.592 85.854996 -95.749 103.83 -80.44 18.864498 157.45999 118.481995 -168.79001 0.0 14.0142 -0.6763499 49.260002 7.7799997 3.6919994 123.656494 -165.44 -18.0 18.736 0.15775649 9.7240505 73.048454 90.0 -9.0 71.196 6.254 24.4175 120.925 -2.8799973 81.0 82.82477 89.91342 83.8672 153.58499 180.0 -180.0
-0.12515008 2.62455 -3.35115 60.6605 -32.72 -47.8335 81.878494 89.99246 -85.95475 0.0 -0.012272 0.0 85.125854 89.98996 -83.25795 0.0 -0.012272 0.0 85.82101 89.97987 -83.25795 0.0 -0.012272 0.0 91.153 -89.99467 -85.950356 0.0 -0.012272 0.0 173.505 179.81 178.64 81.830505 87.57 71.440506 87.943794 94.522 85.7082 85.89235 -86.086 80.871 70.6055 -49.72685 97.306 149.545 -133.28 155.88501 0.0 -9.98135 -0.41750002 92.986496 87.1665 -96.7405 103.578 -81.209 18.599499 157.495 118.766495 -168.97 0.0 14.1652 -0.7429501 48.806 6.094 2.6890001 125.035 -164.77 -18.0 18.1685 0.031142501 10.0505 73.0981 90.0 -9.0 69.545 4.321 25.032001 121.134995 -2.5 81.0 83.04379 -89.996826 83.9625 153.67499 180.0 -180.0
-0.13180006 2.6477 -3.3555498 59.515 -30.875 -46.0805 81.9 89.99548 -86.114204 0.0 -0.012531 0.0 85.13935 89.95095 -83.52865 0.0 -0.012531 0.0 85.845 89.95285 -83.52865 0.0 -0.012531 0.0 91.113495 89.997475 -86.1133 0.0 -0.012531 0.0 173.425 179.815 178.72 81.686844 87.3873 71.558495 87.9078 94.7445 85.7133 85.2675 -86.6825 79.42295 33.675 -49.52 58.7055 146.275 -131.59 152.2 0.0 -10.259951 -0.4650998 93.0855 88.2875 -97.002495 103.0905 -81.7595 18.365002 157.39499 119.3105 -168.635 0.0 14.366249 -0.7442999 48.513504 5.022501 1.9500008 126.66901 -164.16501 -18.0 17.4305 0.004216999 10.38995 73.1582 90.0 -9.0 68.3215 2.205 25.4345 122.255005 -2.2949982 81.0 83.145004 -89.987465 83.97245 153.725 180.0 -180.0
